<?xml version="1.0" standalone="no"?>
<!DOCTYPE svg PUBLIC "-//W3C//DTD SVG 20010904//EN"
 "http://www.w3.org/TR/2001/REC-SVG-20010904/DTD/svg10.dtd">
<svg version="1.0" xmlns="http://www.w3.org/2000/svg"
 width="1412.000000pt" height="720.000000pt" viewBox="0 0 1412.000000 720.000000"
 preserveAspectRatio="xMidYMid meet">
<metadata>
Created by potrace 1.16, written by Peter Selinger 2001-2019
</metadata>
<g transform="translate(0.000000,720.000000) scale(0.100000,-0.100000)"
fill="#000000" stroke="none">
<path d="M1070 3670 l0 -3000 815 0 815 0 2 1702 c2 1040 7 1703 12 1703 11 0
96 -121 96 -136 0 -5 5 -9 10 -9 6 0 10 -4 10 -9 0 -5 29 -53 65 -106 36 -54
65 -102 65 -106 0 -5 4 -9 8 -9 5 0 19 -18 31 -40 13 -23 58 -95 102 -160 43
-66 79 -122 79 -125 0 -4 11 -21 25 -39 14 -18 25 -38 25 -43 0 -6 7 -13 15
-17 8 -3 15 -10 15 -15 0 -5 38 -67 85 -136 47 -70 85 -131 85 -135 0 -5 4
-10 8 -12 4 -1 27 -34 51 -73 24 -38 47 -72 50 -75 4 -3 34 -48 66 -100 33
-52 63 -96 67 -98 4 -2 8 -7 8 -11 0 -5 34 -59 75 -121 41 -62 75 -114 75
-116 0 -1 33 -52 74 -112 40 -60 75 -113 77 -118 13 -30 261 -394 269 -394 15
0 11 -6 255 370 192 294 285 436 295 447 5 7 10 15 10 18 0 3 18 32 39 63 21
31 69 104 106 162 37 58 79 122 94 143 14 21 31 46 36 55 6 9 52 79 103 155
50 76 92 140 92 143 0 3 18 31 39 62 109 159 311 472 311 482 0 6 7 13 15 16
8 4 15 11 15 17 0 5 11 25 25 43 14 18 25 36 25 39 0 3 11 21 25 39 14 18 25
36 25 40 0 13 38 48 47 43 5 -3 7 -775 5 -1716 l-2 -1711 1497 -2 c824 -2
1505 0 1513 4 11 5 9 7 -8 8 -12 0 -30 4 -40 9 -9 5 -37 17 -62 26 -25 10 -65
27 -90 37 -25 11 -61 27 -80 35 -43 18 -198 91 -225 106 -11 6 -45 23 -75 39
-61 33 -93 51 -100 58 -3 3 -21 13 -40 24 -87 46 -125 70 -128 78 -2 4 -8 8
-13 8 -18 0 -318 223 -391 291 -23 21 -46 39 -50 39 -26 0 14 68 91 155 14 17
36 43 49 59 12 16 46 56 76 90 30 33 67 78 83 98 27 36 113 138 157 188 12 14
40 47 61 75 22 27 47 56 55 65 49 53 80 90 80 97 0 5 22 31 48 58 26 28 59 66
73 85 15 19 43 53 64 75 20 22 48 56 63 75 14 19 35 45 46 57 l19 23 36 -27
c20 -15 42 -33 49 -40 7 -7 17 -13 21 -13 4 0 17 -9 28 -20 30 -27 212 -150
224 -150 5 0 9 -4 9 -10 0 -5 5 -10 11 -10 6 0 25 -10 42 -23 18 -12 41 -28
52 -34 24 -15 342 -172 370 -183 52 -20 102 -42 117 -50 10 -6 26 -10 36 -10
10 0 22 -3 26 -7 11 -11 99 -43 119 -43 9 0 25 -4 35 -9 23 -13 157 -50 262
-72 126 -27 508 -68 630 -68 77 0 254 23 369 47 115 25 276 139 314 222 52
114 49 279 -7 365 -38 60 -120 125 -210 169 -106 51 -222 98 -286 116 -25 6
-60 18 -78 26 -18 8 -44 14 -57 14 -13 0 -26 4 -29 9 -3 4 -22 11 -43 14 -21
4 -63 14 -93 23 -30 9 -78 20 -107 24 -28 5 -58 12 -65 16 -7 4 -30 11 -53 15
-22 5 -60 13 -85 19 -25 6 -66 15 -92 20 -26 5 -56 13 -67 19 -11 6 -34 11
-51 11 -17 0 -41 5 -53 12 -12 6 -40 15 -62 20 -104 23 -123 28 -165 41 -25 7
-52 16 -60 19 -8 4 -26 9 -40 11 -28 6 -86 25 -112 38 -10 5 -29 9 -42 9 -14
0 -28 4 -31 10 -3 5 -16 10 -28 10 -12 0 -33 6 -47 13 -14 7 -51 21 -82 31
-32 10 -60 22 -64 27 -3 5 -13 9 -23 9 -16 0 -59 17 -103 41 -10 5 -25 9 -33
9 -8 0 -33 11 -55 25 -22 14 -44 25 -49 25 -25 0 -332 174 -339 192 -2 4 -10
8 -18 8 -8 0 -14 4 -14 9 0 5 -8 12 -17 15 -10 3 -31 17 -46 30 -16 14 -47 39
-70 57 -74 58 -214 207 -274 292 -49 69 -145 248 -173 322 -78 207 -104 370
-104 660 -1 213 10 338 39 455 8 36 19 81 24 100 8 35 44 147 60 185 44 110
209 403 251 445 3 3 32 37 65 75 77 90 104 117 195 195 41 36 86 75 100 88 13
12 30 22 37 22 7 0 13 4 13 8 0 5 16 17 35 28 19 10 35 22 35 26 0 5 5 8 12 8
6 0 19 7 29 16 10 9 50 33 91 55 l73 39 -1584 -3 -1584 -2 -16 -30 c-9 -17
-26 -44 -38 -62 -13 -17 -23 -34 -23 -37 0 -3 -15 -27 -32 -53 -41 -60 -56
-84 -65 -103 -4 -8 -74 -122 -155 -253 -81 -130 -148 -239 -148 -242 0 -3 -15
-26 -33 -52 -19 -27 -37 -55 -41 -63 -3 -8 -17 -33 -31 -55 -14 -22 -31 -50
-37 -62 -6 -13 -15 -23 -20 -23 -4 0 -8 -5 -8 -10 0 -6 -45 -83 -100 -171 -55
-88 -100 -163 -100 -165 0 -3 -10 -20 -23 -37 -25 -35 -32 -47 -78 -127 -17
-30 -35 -57 -38 -60 -3 -3 -15 -22 -26 -43 -11 -20 -23 -37 -27 -37 -5 0 -8
-5 -8 -11 0 -6 -18 -38 -40 -71 -22 -33 -40 -62 -40 -65 0 -3 -8 -17 -19 -31
-10 -15 -27 -43 -38 -62 -10 -19 -44 -73 -74 -120 -31 -47 -68 -107 -83 -135
-16 -27 -33 -56 -39 -64 -6 -7 -16 -23 -22 -34 -14 -28 -43 -34 -52 -10 -3 10
-39 71 -80 136 -40 66 -73 122 -73 127 0 4 -6 13 -14 19 -8 7 -21 26 -30 44
-18 36 -38 69 -46 77 -10 10 -31 45 -36 63 -4 9 -10 17 -15 17 -5 0 -9 5 -9
10 0 6 -68 118 -150 250 -83 132 -150 244 -150 250 0 5 -4 10 -9 10 -5 0 -11
8 -15 18 -5 17 -26 52 -36 62 -8 8 -28 41 -46 77 -9 18 -22 37 -30 44 -8 6
-14 16 -14 22 0 5 -11 25 -25 43 -14 18 -25 35 -25 38 0 3 -16 30 -35 60 -19
30 -35 59 -35 64 0 5 -6 15 -14 21 -8 7 -21 26 -30 44 -19 37 -39 70 -46 77
-9 8 -107 164 -111 177 -2 6 -78 131 -169 277 l-165 265 -882 1 -883 0 0
-3000z"/>
<path d="M12014 6655 c11 -8 25 -15 30 -15 6 0 48 -18 94 -40 46 -22 87 -40
92 -40 6 0 10 -4 10 -10 0 -5 11 -10 24 -10 13 0 26 -3 28 -7 2 -5 23 -18 48
-31 25 -12 68 -35 95 -52 51 -30 81 -47 125 -71 45 -26 194 -127 223 -152 16
-13 46 -35 67 -48 22 -13 40 -31 40 -40 0 -18 -30 -64 -152 -233 -43 -59 -78
-109 -78 -112 0 -3 -9 -15 -21 -27 -11 -12 -28 -35 -36 -52 -9 -16 -22 -34
-29 -38 -8 -4 -14 -13 -14 -19 0 -5 -11 -24 -25 -42 -38 -46 -37 -45 -90 -126
-27 -41 -55 -82 -62 -90 -7 -8 -89 -121 -181 -251 -170 -239 -193 -269 -210
-269 -4 0 -19 11 -32 25 -13 14 -29 25 -36 25 -7 0 -14 3 -16 8 -5 11 -103 72
-116 72 -7 0 -12 5 -12 10 0 6 -7 10 -15 10 -8 0 -15 5 -15 10 0 6 -8 10 -19
10 -10 0 -24 6 -30 14 -6 7 -39 28 -74 46 -34 17 -80 41 -103 53 -35 19 -103
50 -219 102 -52 23 -99 42 -135 55 -19 6 -44 16 -55 20 -57 23 -113 40 -128
40 -9 0 -25 4 -35 9 -9 5 -46 17 -82 25 -36 9 -81 21 -100 25 -19 5 -80 17
-135 26 -55 9 -122 21 -148 26 -76 14 -402 11 -478 -5 -202 -42 -320 -119
-382 -249 -23 -50 -27 -70 -27 -150 1 -77 5 -100 25 -142 14 -27 25 -56 25
-62 0 -7 4 -13 9 -13 6 0 29 -19 53 -42 25 -24 83 -62 134 -87 49 -24 101 -50
116 -57 14 -8 33 -14 42 -14 9 0 24 -4 34 -9 19 -11 141 -49 242 -76 36 -9 74
-21 85 -25 11 -5 34 -11 50 -14 53 -8 129 -27 150 -36 11 -5 36 -11 55 -13 19
-3 67 -13 105 -22 39 -9 90 -21 115 -25 59 -10 194 -44 330 -83 30 -9 82 -23
115 -32 33 -9 69 -20 80 -24 11 -5 40 -14 65 -21 25 -7 56 -17 70 -22 14 -6
50 -18 80 -28 104 -34 324 -121 376 -148 10 -5 48 -24 84 -41 313 -151 577
-361 735 -584 35 -51 68 -96 72 -102 5 -5 16 -26 25 -45 10 -19 22 -42 28 -50
16 -25 57 -123 64 -153 4 -15 11 -25 16 -22 6 3 9 -4 8 -18 -1 -12 3 -36 9
-53 6 -16 18 -65 28 -109 9 -44 21 -96 25 -115 15 -60 22 -388 11 -525 -9
-115 -17 -165 -51 -320 -16 -73 -33 -130 -41 -140 -5 -5 -9 -17 -9 -27 0 -16
-19 -66 -41 -110 -5 -10 -9 -22 -9 -28 0 -6 -11 -28 -25 -50 -14 -22 -25 -44
-25 -50 0 -14 -126 -215 -169 -270 -111 -140 -244 -269 -385 -373 -28 -20 -56
-42 -63 -47 -7 -6 -15 -10 -19 -10 -4 0 -15 -6 -23 -14 -16 -14 -49 -34 -121
-72 -19 -11 -37 -21 -40 -24 -3 -3 -31 -18 -62 -35 l-58 -30 663 -3 c364 -1
668 0 675 3 10 3 12 608 10 2997 l-3 2993 -635 2 c-561 2 -633 1 -616 -12z
m66 -5935 c0 -5 -4 -10 -9 -10 -6 0 -13 5 -16 10 -3 6 1 10 9 10 9 0 16 -4 16
-10z"/>
</g>
</svg>
